HIERARCHY
ROOT Hips
{
	OFFSET 56.877701 -32.693596 43.373703
	CHANNELS 6 Xposition Yposition Zposition Zrotation Xrotation Yrotation
	JOINT Chest
	{
		OFFSET -0.779999 1.005800 5.403099
		CHANNELS 6 Xposition Yposition Zposition Zrotation Xrotation Yrotation
		JOINT Chest2
		{
			OFFSET 0.000000 0.000000 4.236801
			CHANNELS 6 Xposition Yposition Zposition Zrotation Xrotation Yrotation
			JOINT Neck
			{
				OFFSET 0.000000 0.000000 9.874401
				CHANNELS 6 Xposition Yposition Zposition Zrotation Xrotation Yrotation
				JOINT Head
				{
					OFFSET 0.000000 0.000002 2.173893
					CHANNELS 6 Xposition Yposition Zposition Zrotation Xrotation Yrotation
					End Site
					{
						OFFSET 0.000000 0.000000 6.508102
					}
				}
			}
			JOINT LeftCollar
			{
				OFFSET 2.681599 -0.377600 5.432499
				CHANNELS 6 Xposition Yposition Zposition Zrotation Xrotation Yrotation
				JOINT LeftShoulder
				{
					OFFSET 5.161499 0.000000 0.000000
					CHANNELS 6 Xposition Yposition Zposition Zrotation Xrotation Yrotation
					JOINT LeftElbow
					{
						OFFSET 0.000000 0.000000 -10.869099
						CHANNELS 6 Xposition Yposition Zposition Zrotation Xrotation Yrotation
						JOINT LeftWrist
						{
							OFFSET 0.000000 0.000000 -13.344799
							CHANNELS 6 Xposition Yposition Zposition Zrotation Xrotation Yrotation
							End Site
							{
								OFFSET 0.000000 0.000000 -2.173901
							}
						}
					}
				}
			}
			JOINT RightCollar
			{
				OFFSET -2.381901 -1.419600 6.136600
				CHANNELS 6 Xposition Yposition Zposition Zrotation Xrotation Yrotation
				JOINT RightShoulder
				{
					OFFSET -4.550499 0.000000 0.000000
					CHANNELS 6 Xposition Yposition Zposition Zrotation Xrotation Yrotation
					JOINT RightElbow
					{
						OFFSET 0.000000 0.000000 -11.106499
						CHANNELS 6 Xposition Yposition Zposition Zrotation Xrotation Yrotation
						JOINT RightWrist
						{
							OFFSET 0.000000 0.000000 -12.874298
							CHANNELS 6 Xposition Yposition Zposition Zrotation Xrotation Yrotation
							End Site
							{
								OFFSET 0.000000 0.000000 -2.173901
							}
						}
					}
				}
			}
		}
	}
	JOINT LeftHip
	{
		OFFSET 2.431900 0.469601 -2.489399
		CHANNELS 6 Xposition Yposition Zposition Zrotation Xrotation Yrotation
		JOINT LeftKnee
		{
			OFFSET 0.000000 -0.000004 -18.200201
			CHANNELS 6 Xposition Yposition Zposition Zrotation Xrotation Yrotation
			JOINT LeftAnkle
			{
				OFFSET 0.000000 0.000000 -16.279900
				CHANNELS 6 Xposition Yposition Zposition Zrotation Xrotation Yrotation
				End Site
				{
					OFFSET 0.000000 -8.394100 0.000000
				}
			}
		}
	}
	JOINT RightHip
	{
		OFFSET -1.987999 -0.073502 -2.713001
		CHANNELS 6 Xposition Yposition Zposition Zrotation Xrotation Yrotation
		JOINT RightKnee
		{
			OFFSET 0.000000 -0.000004 -19.547802
			CHANNELS 6 Xposition Yposition Zposition Zrotation Xrotation Yrotation
			JOINT RightAnkle
			{
				OFFSET 0.000000 0.000000 -14.881199
				CHANNELS 6 Xposition Yposition Zposition Zrotation Xrotation Yrotation
				End Site
				{
					OFFSET 0.000000 -7.922699 0.000000
				}
			}
		}
	}
}
MOTION
Frames: 5
Frame Time: 0.041667
67.089005 -38.263500 42.871902 4699.956550 12.951149 8.313409 -0.779998 1.005804 5.403092 -21.773188 -8.928108 -13.159753 -0.000007 0.000006 4.236800 18.402662 2.753898 1.858800 0.000003 0.000004 9.874405 8.366630 -3.602827 -2.724695 -0.000002 0.000005 2.173895 0.261058 0.104775 1.609437 2.681589 -0.377600 5.432500 -6.501804 4.187913 -17.554957 5.161502 -0.000010 0.000003 185.578152 -143.296945 105.799419 0.000008 -0.000008 -10.869101 11.093253 -36.201635 29.231765 -0.000006 -0.000003 -13.344797 -81.038186 0.747383 -20.651166 -2.381898 -1.419596 6.136600 7.234605 -0.761033 12.114618 -4.550505 0.000002 0.000004 -1291.794771 -526.444972 -470.213664 0.000008 -0.000012 -11.106497 660.700700 -65.750154 658.800596 -0.000003 0.000004 -12.874308 -286.280084 3.951097 30.018145 2.431900 0.469604 -2.489394 -337.716873 -29.047961 4.358319 0.000003 0.000002 -18.200199 343.974446 45.665183 13.398325 -0.000004 0.000003 -16.279903 23.091263 21.288438 -12.576245 -1.987995 -0.073504 -2.713001 -138.644098 -18.329789 -44.262033 -0.000009 -0.000016 -19.547798 -1761.359129 150.885422 68.918337 -0.000001 0.000006 -14.881189 2152.037207 65.075631 -412.298195
67.247711 -38.297295 42.940304 4694.937836 12.783969 8.335150 -0.779992 1.005800 5.403091 -16.762372 -9.498356 -11.872384 -0.000010 0.000002 4.236790 13.057742 2.423974 1.429283 0.000005 0.000003 9.874405 11.792226 -3.425984 -2.874190 0.000009 -0.000002 2.173893 0.337021 0.228211 2.083979 2.681604 -0.377595 5.432506 -6.214720 3.767606 -17.901075 5.161509 0.000000 -0.000006 183.943538 -147.024357 104.456392 0.000003 0.000004 -10.869099 5.484898 -40.826441 28.261986 0.000001 -0.000005 -13.344795 -75.527713 -0.584925 -12.177856 -2.381895 -1.419592 6.136596 7.464919 -0.628282 13.195880 -4.550504 0.000004 0.000004 -1288.934943 -529.122515 -468.672281 0.000006 -0.000000 -11.106502 662.999305 -68.137769 657.981083 -0.000002 0.000004 -12.874291 -289.041803 5.698951 20.687998 2.431898 0.469606 -2.489400 -337.869733 -28.653221 4.013518 0.000001 -0.000003 -18.200203 350.571644 45.503192 10.285659 -0.000011 0.000003 -16.279905 21.259160 21.846526 -12.996278 -1.987995 -0.073495 -2.713002 -141.663560 -16.453861 -46.008264 0.000000 -0.000007 -19.547802 -1758.255273 160.380929 66.191452 0.000010 0.000001 -14.881189 2151.202285 61.750572 -427.702839
67.409897 -38.323601 43.028301 4689.645477 12.379164 8.551991 -0.779994 1.005805 5.403089 -11.429335 -9.617358 -10.658109 -0.000011 -0.000003 4.236798 7.558504 2.077796 0.984182 0.000003 -0.000001 9.874405 15.358609 -3.320949 -3.069695 0.000003 0.000006 2.173892 0.381032 0.380962 2.610971 2.681603 -0.377595 5.432496 -6.116484 3.594808 -17.864358 5.161509 -0.000003 0.000003 182.395598 -149.929810 103.175021 0.000001 0.000006 -10.869099 2.589888 -44.423595 28.780682 0.000002 -0.000002 -13.344801 -69.830905 -2.675924 -4.774127 -2.381886 -1.419601 6.136592 6.605333 1.272369 14.181614 -4.550506 0.000009 0.000007 -1285.371333 -529.747833 -468.173404 -0.000001 -0.000010 -11.106503 664.582051 -70.727674 656.403418 -0.000000 -0.000007 -12.874306 -293.597430 8.552284 6.566078 2.431899 0.469603 -2.489401 -338.091605 -28.178092 3.358692 -0.000011 -0.000010 -18.200201 350.759338 44.855809 10.840842 0.000007 0.000003 -16.279902 23.222035 22.602918 -12.645198 -1.987995 -0.073502 -2.713004 -142.727226 -15.708983 -46.985305 -0.000003 -0.000002 -19.547810 -1756.883333 165.085986 62.157932 0.000004 0.000009 -14.881200 2151.707172 60.825239 -434.961582
67.577301 -38.348991 43.136002 4684.119691 11.810292 8.491319 -0.779998 1.005805 5.403094 -5.773238 -9.447183 -9.089744 -0.000007 0.000006 4.236799 1.874120 1.723514 0.401854 0.000000 0.000001 9.874401 19.006743 -3.264626 -3.227262 -0.000008 -0.000001 2.173886 0.374964 0.562212 3.085649 2.681590 -0.377591 5.432493 -6.118608 3.427357 -17.954687 5.161505 -0.000004 0.000010 181.597586 -152.236242 103.064481 0.000005 -0.000004 -10.869101 2.571051 -47.278262 30.967214 -0.000010 0.000000 -13.344807 -63.876858 -5.381224 2.014921 -2.381906 -1.419604 6.136593 8.545399 -1.294035 15.355911 -4.550504 0.000005 -0.000003 -1282.835529 -534.938558 -465.717050 0.000002 -0.000002 -11.106499 664.366490 -73.256306 653.234484 0.000010 0.000000 -12.874299 -297.799198 12.168118 -7.895635 2.431893 0.469601 -2.489393 -338.153732 -27.528900 2.956397 0.000003 -0.000001 -18.200197 352.650289 44.419633 10.231250 -0.000001 -0.000003 -16.279900 23.599943 23.638894 -12.731407 -1.987989 -0.073501 -2.713006 -142.536991 -16.026216 -47.776651 0.000005 -0.000008 -19.547794 -1756.674166 166.867751 57.515199 0.000001 0.000004 -14.881197 2154.459793 61.183482 -438.145543
67.749603 -38.379395 43.261395 4678.283103 11.128342 8.298034 -0.779992 1.005802 5.403094 0.240259 -8.992363 -7.454900 0.000015 0.000001 4.236800 -3.853974 1.389343 -0.182860 -0.000006 -0.000003 9.874405 22.760108 -3.297070 -3.509529 0.000007 0.000002 2.173899 0.349415 0.838685 3.780973 2.681591 -0.377600 5.432496 -6.331919 3.021130 -17.561786 5.161500 -0.000001 0.000002 180.782991 -154.229852 102.874820 0.000006 0.000002 -10.869095 5.584265 -49.064435 35.139018 0.000005 0.000002 -13.344805 -57.402016 -7.961545 7.330755 -2.381913 -1.419602 6.136598 8.758568 -0.373358 16.340382 -4.550502 -0.000003 0.000003 -1279.688834 -536.583814 -464.854916 0.000007 -0.000013 -11.106495 661.809213 -75.548251 648.026820 -0.000003 -0.000002 -12.874291 -301.723006 15.849920 -21.381444 2.431911 0.469599 -2.489399 -338.033521 -26.808528 2.677305 0.000002 -0.000006 -18.200201 354.027447 44.149455 9.807880 -0.000005 -0.000002 -16.279898 23.687072 24.873218 -12.904498 -1.987989 -0.073504 -2.713008 -141.431074 -16.976587 -48.387294 -0.000001 -0.000010 -19.547798 -1757.213368 167.008015 52.731471 0.000000 -0.000007 -14.881192 2158.981051 62.518176 -438.767063
